<svg width="44" height="25" viewBox="0 0 44 25" fill="none" xmlns="http://www.w3.org/2000/svg">
<path d="M16.5142 20.8044C16.5189 20.8961 16.4776 21.0202 16.5831 21.066C16.6062 21.0753 16.6292 21.0798 16.6568 21.0798C16.6936 21.0798 16.7349 21.0707 16.7717 21.0707C16.8773 21.0707 16.9785 21.0707 17.0797 21.066C17.0934 21.066 17.1025 21.066 17.1163 21.0753C17.1761 21.1074 17.1439 21.2728 17.1439 21.3232C17.1439 21.4426 17.1624 21.5667 17.1577 21.686C17.1577 21.8101 17.1163 21.9296 17.1163 22.0535C17.1163 22.1729 17.1256 22.2969 17.1256 22.4163C17.121 22.5357 17.121 22.6552 17.1163 22.7699C17.1163 22.9168 17.1761 23.05 17.1714 23.197C17.1669 23.2797 17.1531 23.3625 17.1531 23.4451C17.1577 23.5094 17.1669 23.5598 17.2128 23.6011C17.2405 23.6287 17.2726 23.6426 17.3094 23.6472C17.3967 23.6564 17.4794 23.6609 17.5668 23.6609C17.6587 23.6609 17.7507 23.6564 17.8424 23.6379C17.8747 23.6334 17.9161 23.6379 17.9391 23.6196C18.0448 23.5508 18.0033 23.3072 18.0033 23.2063C17.9988 23.0225 18.0218 22.8389 18.0218 22.6552C18.0171 22.5357 17.985 22.4163 17.9804 22.2924C17.9757 22.2188 17.9804 22.1407 17.985 22.0627C17.9942 21.8973 18.008 21.7275 18.008 21.562C18.008 21.3922 17.985 21.2268 17.985 21.0568C18.1458 21.0568 18.3067 21.0615 18.4676 21.0615C18.4997 21.0615 18.5182 21.0385 18.5412 20.9834C18.5503 20.9466 18.5688 20.91 18.5688 20.864C18.5778 20.7308 18.5916 20.4506 18.564 20.3267C18.5457 20.2578 18.4951 20.244 18.44 20.244C18.4079 20.244 18.3756 20.2486 18.3526 20.2486C18.3481 20.2486 18.3481 20.2486 18.3435 20.2486C18.247 20.2348 18.1504 20.2118 18.0494 20.2118C18.0033 20.2118 17.9529 20.198 17.9068 20.198C17.8334 20.198 17.7597 20.2165 17.6908 20.2165C17.5989 20.2072 17.4841 20.1797 17.3921 20.1797C17.3736 20.1797 17.3553 20.1842 17.3415 20.1842C17.3094 20.1842 17.2819 20.2027 17.2496 20.2027C17.1393 20.2027 17.0336 20.198 16.9279 20.198C16.8222 20.2027 16.7164 20.2255 16.6109 20.2393C16.6062 20.2393 16.6062 20.244 16.6016 20.244C16.5786 20.2486 16.5648 20.2531 16.5465 20.2853C16.528 20.3129 16.5189 20.345 16.5189 20.3817C16.5097 20.5012 16.5051 20.6206 16.5142 20.7446C16.5142 20.763 16.5142 20.7859 16.5142 20.8044Z" fill="#6E58FF"/>
<path d="M19.9778 23.6766C19.9963 23.6766 20.0146 23.6719 20.033 23.6719C20.18 23.6719 20.3271 23.6673 20.4742 23.6673C20.511 23.6673 20.5478 23.6673 20.5846 23.6673C20.7087 23.6673 20.8327 23.6673 20.9568 23.6719C21.0166 23.6719 21.0763 23.6673 21.1269 23.6443C21.2694 23.5754 21.2281 23.2953 21.2326 23.1668C21.2326 23.0519 21.2188 22.937 21.2096 22.8223C21.205 22.7947 21.2143 22.7487 21.1958 22.7259C21.1499 22.6798 21.0487 22.6753 20.989 22.6753C20.9292 22.6753 20.8648 22.6798 20.8052 22.6798C20.7546 22.6753 20.6994 22.6753 20.6488 22.6753C20.5984 22.6753 20.5478 22.6753 20.5065 22.6846C20.4972 22.6891 20.4742 22.6798 20.4697 22.6846C20.4421 22.7029 20.4559 22.758 20.4559 22.79C20.4559 22.8085 20.4513 22.8268 20.4513 22.8453C20.4513 22.8498 20.4421 22.8544 20.4421 22.8591C20.4328 22.8819 20.3777 22.8819 20.3594 22.8819C20.2767 22.8819 20.2352 22.8728 20.2352 22.7855C20.2352 22.7534 20.2629 22.3491 20.2537 22.3491C20.2858 22.3491 20.2995 22.3446 20.3318 22.3446C20.3594 22.3446 20.3915 22.3446 20.4191 22.3446C20.511 22.3446 20.6075 22.3401 20.6902 22.2987C20.7776 22.2527 20.8052 21.9635 20.8097 21.8808C20.8144 21.7935 20.8235 21.6511 20.7455 21.5914C20.704 21.5639 20.4421 21.5501 20.387 21.5501C20.3318 21.5501 20.2812 21.5501 20.2306 21.5547C20.2306 21.4582 20.2123 21.3664 20.2123 21.27C20.2123 21.1781 20.2352 21.0862 20.2306 20.9898C20.2812 20.9898 20.318 20.9943 20.3685 20.9943C20.3822 20.9943 20.396 20.9943 20.4145 21.0036C20.4513 21.0173 20.4376 21.0541 20.4328 21.0862C20.4328 21.1184 20.4466 21.1598 20.4697 21.1826C20.4927 21.2102 20.6994 21.2379 20.7362 21.2379C20.8282 21.2379 20.9247 21.2194 21.0166 21.2194C21.081 21.2194 21.1637 21.2149 21.1913 21.146C21.2096 21.1047 21.1958 21.0494 21.1958 21.0036C21.1865 20.8198 21.2326 20.6362 21.2188 20.4525C21.2143 20.3927 21.2281 20.2642 21.1728 20.2274C21.1314 20.1953 21.0672 20.1998 21.0211 20.1953C21.0074 20.1953 20.9936 20.1953 20.9798 20.1953C20.9109 20.1953 20.8373 20.2091 20.7683 20.2091C20.7317 20.2091 20.6902 20.2229 20.6488 20.2229C20.4651 20.2229 20.2812 20.1953 20.0928 20.1953C20.0515 20.1953 20.0101 20.1953 19.9688 20.1998C19.8859 20.2091 19.8079 20.2182 19.725 20.2229C19.6195 20.2229 19.5183 20.2229 19.4126 20.2229C19.2885 20.2229 19.1645 20.2319 19.0495 20.2825C19.0265 20.4755 19.0449 20.6683 19.0587 20.8611C19.0633 20.8934 19.0633 20.9255 19.0816 20.953C19.1092 21.0081 19.1782 21.0266 19.2424 21.0266C19.2609 21.0266 19.2793 21.0219 19.293 21.0219C19.2978 21.0219 19.3068 21.0219 19.3115 21.0219C19.4539 21.0219 19.385 21.2424 19.385 21.3388C19.385 21.4582 19.408 21.5822 19.408 21.7016C19.408 21.8256 19.408 21.945 19.408 22.0691C19.408 22.1884 19.3804 22.3125 19.3804 22.4319C19.3804 22.5514 19.3574 22.6706 19.3574 22.7855C19.3574 22.9279 19.362 23.0657 19.3667 23.2034C19.3712 23.3551 19.3988 23.6811 19.601 23.6994C19.6285 23.7041 19.6516 23.7041 19.6791 23.7041C19.7803 23.7041 19.8859 23.6856 19.9778 23.6766Z" fill="#6E58FF"/>
<path d="M22.7167 23.6862C22.8132 23.6955 22.9142 23.7322 23.0154 23.7322C23.0247 23.7322 23.0337 23.7322 23.043 23.7322C23.1946 23.7185 23.3417 23.6679 23.475 23.6311C23.5025 23.6266 23.5256 23.599 23.5439 23.576C23.5716 23.5485 23.6083 23.5209 23.613 23.4842C23.6268 23.3279 23.5762 23.1764 23.5393 23.0249C23.5256 22.9561 23.4888 22.8274 23.4015 22.8274C23.374 22.8274 23.3464 22.8412 23.3096 22.855C23.2176 22.8917 23.1119 22.8917 23.0109 22.8917C22.9052 22.8917 22.7719 22.878 22.6982 22.7999C22.5604 22.6346 22.5145 22.3727 22.496 22.1614C22.487 22.0375 22.4685 21.9228 22.4732 21.8216C22.4777 21.7252 22.5191 21.6334 22.5421 21.5415C22.5604 21.4496 22.5742 21.3532 22.6248 21.2705C22.6569 21.22 22.7258 21.1281 22.7902 21.1098C22.7994 21.1053 22.804 21.1053 22.8087 21.1053C22.8729 21.1053 22.8453 21.2292 22.8408 21.266C22.8362 21.2936 22.804 21.3349 22.8177 21.3577C22.8315 21.3807 22.8638 21.4037 22.8914 21.4083C23.0109 21.4496 23.1395 21.4496 23.2682 21.4681C23.2958 21.4726 23.3188 21.4771 23.3464 21.4771C23.4474 21.4543 23.4797 21.3026 23.5072 21.22C23.5439 21.0915 23.5577 20.9536 23.5945 20.8251C23.622 20.7148 23.7047 20.5449 23.6175 20.4485C23.5899 20.4163 23.5439 20.3933 23.5072 20.375C23.2775 20.2648 23.02 20.2188 22.7673 20.2188C22.4777 20.228 22.2111 20.3474 22.041 20.5953C21.9538 20.724 21.917 20.8847 21.8664 21.0317C21.825 21.1557 21.7654 21.2798 21.7423 21.4083C21.7193 21.5369 21.724 21.6701 21.7193 21.8033C21.7102 21.9318 21.7148 22.065 21.724 22.1937C21.7378 22.3269 21.7561 22.4554 21.7837 22.584C21.8159 22.8136 21.917 23.1306 22.0457 23.3189C22.133 23.4474 22.2617 23.5485 22.4041 23.6174C22.5007 23.6679 22.611 23.6724 22.7167 23.6862Z" fill="#6E58FF"/>
<path d="M24.3207 21.0724C24.5137 21.0909 24.4357 21.2837 24.4357 21.4262C24.4357 21.5454 24.4632 21.6558 24.4632 21.7614C24.4632 21.8761 24.4632 21.9863 24.4632 22.1012C24.4632 22.2114 24.4815 22.3216 24.4815 22.441C24.4815 22.5559 24.4723 22.6753 24.4678 22.7947C24.4678 22.9142 24.4723 23.0289 24.477 23.1483C24.477 23.2677 24.454 23.3872 24.4632 23.502C24.4632 23.5066 24.4632 23.5111 24.4632 23.5158C24.4815 23.6719 24.5873 23.6994 24.716 23.6994C24.8308 23.6994 25.1295 23.6673 25.2307 23.6075C25.3364 23.5341 25.3272 23.3321 25.3272 23.2264C25.3272 23.0427 25.2996 22.8636 25.2951 22.6799C25.2951 22.5651 25.318 22.4548 25.318 22.3401C25.3457 22.3401 25.3685 22.3446 25.4008 22.3446C25.5341 22.3446 25.6627 22.3631 25.8005 22.3676C25.8005 22.3952 25.8283 22.3997 25.8283 22.4272C25.8283 22.5467 25.8236 22.6661 25.8236 22.7855C25.819 23.0336 25.8005 23.2815 25.819 23.5296C25.8328 23.6398 25.8879 23.6443 25.9754 23.6535C26.0258 23.6581 26.0764 23.6628 26.1223 23.6628C26.251 23.6628 26.3798 23.6443 26.5038 23.626C26.5359 23.6168 26.5635 23.626 26.5911 23.6075C26.6922 23.5387 26.6509 23.3228 26.6509 23.2172C26.6464 23.0336 26.6554 22.8498 26.6554 22.6706C26.6554 22.5467 26.6554 22.4272 26.6554 22.3033C26.6554 22.1838 26.6692 22.0599 26.6692 21.9405C26.6692 21.8165 26.6601 21.6971 26.6601 21.5731C26.6601 21.4445 26.6601 21.3158 26.6601 21.1826C26.6554 21.0541 26.6188 20.9255 26.6188 20.7923C26.6188 20.6638 26.6554 20.5351 26.6554 20.4019C26.6554 20.3513 26.6279 20.31 26.5727 20.278C26.5406 20.2595 26.5038 20.2136 26.4625 20.2091C26.3936 20.2044 26.2786 20.1953 26.1729 20.1953C26.0718 20.1953 25.9754 20.2044 25.9155 20.2274C25.796 20.278 25.8511 20.5076 25.8466 20.6087C25.8328 20.7694 25.8328 20.9347 25.8328 21.0954C25.8328 21.1781 25.8236 21.2562 25.8236 21.3343C25.8236 21.4077 25.8052 21.4765 25.8052 21.5454C25.6995 21.5501 25.5983 21.5547 25.4928 21.5594C25.4284 21.5594 25.387 21.5501 25.3227 21.5501C25.3227 21.4215 25.2904 21.3067 25.2904 21.1781C25.2904 21.0494 25.2904 20.9209 25.2904 20.797C25.2859 20.6683 25.3134 20.5396 25.3134 20.4157C25.3134 20.301 25.249 20.2366 25.1388 20.2366C25.1388 20.2366 25.1342 20.2366 25.1295 20.2366C24.8722 20.2366 24.6148 20.2412 24.362 20.2412C24.3437 20.2412 24.3299 20.2412 24.3162 20.2412C24.2472 20.2412 24.2104 20.2457 24.1736 20.3147C24.1553 20.3468 24.1185 20.3789 24.1185 20.4202C24.1139 20.5259 24.1598 20.7096 24.1553 20.8198C24.1553 20.953 24.1598 21.0494 24.3207 21.0724Z" fill="#6E58FF"/>
<path d="M27.2911 21.0607C27.4888 21.0835 27.4567 21.2673 27.4567 21.4097C27.452 21.529 27.4336 21.6393 27.4336 21.745C27.4336 21.8597 27.4244 21.9699 27.4244 22.0848C27.4244 22.1949 27.4474 22.3051 27.4474 22.4245C27.4474 22.5394 27.4106 22.6589 27.4106 22.7783C27.4106 22.8747 27.4244 22.9711 27.4336 23.0675C27.4336 23.1594 27.4199 23.2467 27.4199 23.3386C27.4153 23.4671 27.4474 23.6371 27.599 23.6554C27.691 23.6646 27.7875 23.6739 27.8794 23.6739C27.9668 23.6739 28.0495 23.6646 28.1368 23.6509C28.2104 23.6326 28.2379 23.6095 28.2655 23.5314C28.3023 23.4258 28.2885 23.3156 28.2885 23.21C28.2885 23.0262 28.2838 22.8472 28.2838 22.6634C28.2838 22.5211 28.2793 22.3742 28.2793 22.2317C28.2793 22.0893 28.2655 21.9285 28.2655 21.7863C28.3299 21.8872 28.3943 22.0067 28.4585 22.1031C28.5229 22.1996 28.6103 22.2868 28.6746 22.3879C28.7343 22.4796 28.7849 22.59 28.8493 22.6956C28.8493 22.7874 28.8308 22.8839 28.8308 22.9803C28.8308 23.1319 28.8721 23.2834 28.9044 23.435C28.932 23.5728 28.9733 23.6509 29.1204 23.6601C29.2905 23.6601 29.5937 23.6554 29.6764 23.4763C29.6949 23.4396 29.7178 23.4075 29.7178 23.3662C29.7178 23.2467 29.704 23.1226 29.704 22.9987C29.704 22.7507 29.704 22.5074 29.704 22.2593C29.704 22.1353 29.6949 22.0112 29.6949 21.8919C29.6949 21.7678 29.6857 21.6438 29.6857 21.5199C29.6857 21.3959 29.6995 21.2765 29.6995 21.1524C29.6949 21.0284 29.7178 20.9045 29.7133 20.7805C29.7133 20.6564 29.6995 20.537 29.6949 20.413C29.6949 20.3624 29.6719 20.3258 29.6168 20.2936C29.58 20.2707 29.5524 20.2202 29.5065 20.2155C29.4789 20.2155 29.4421 20.2109 29.4008 20.2109C29.2582 20.2109 29.0653 20.2247 28.9733 20.266C28.8538 20.3166 28.8721 20.5141 28.8676 20.6151C28.8584 20.7758 28.8676 20.9413 28.8676 21.1065C28.8676 21.1616 28.8446 21.2305 28.8446 21.2856C28.7849 21.1846 28.7205 21.0835 28.6561 20.9826C28.5918 20.886 28.5504 20.7758 28.4862 20.6702C28.4126 20.5554 28.3299 20.4498 28.2655 20.3349C28.2472 20.3073 28.2334 20.2798 28.2058 20.2615C28.169 20.234 28.1139 20.2292 28.0633 20.2292C27.9851 20.2292 27.9024 20.2292 27.8243 20.2292C27.7829 20.2292 27.7461 20.2292 27.7048 20.2292C27.5807 20.2247 27.4567 20.2155 27.3325 20.2155C27.3096 20.2155 27.2866 20.2155 27.2683 20.2155C27.2039 20.2155 27.1533 20.2202 27.1212 20.2845C27.1027 20.3166 27.1257 20.3671 27.1257 20.4038C27.1212 20.5094 27.0981 20.6932 27.0981 20.8033C27.0981 20.9641 27.1165 21.0467 27.2911 21.0607Z" fill="#6E58FF"/>
<path d="M30.2472 22.6023C30.2657 22.708 30.2611 22.8182 30.2933 22.9146C30.4173 23.2774 30.5092 23.4519 30.8678 23.6264C31.0286 23.7091 31.1986 23.7138 31.3779 23.7138C31.7502 23.7138 32.0029 23.6357 32.219 23.3187C32.3706 23.0983 32.4717 22.8733 32.5085 22.6069C32.536 22.4782 32.5683 22.3497 32.5821 22.2165C32.5912 22.0879 32.5866 21.9547 32.5774 21.8262C32.5729 21.6792 32.4854 21.1877 32.435 21.0545C32.3523 20.7836 32.1684 20.4438 31.9019 20.3152C31.764 20.2463 31.6032 20.2371 31.4423 20.2371C31.3687 20.2325 31.2905 20.2188 31.2171 20.2188C31.1068 20.2188 30.9459 20.2601 30.8493 20.3059C30.6425 20.407 30.3805 20.8342 30.307 21.05C30.2657 21.174 30.2243 21.3026 30.2013 21.4311C30.1783 21.5598 30.1875 21.693 30.183 21.8262C30.1737 21.9547 30.1692 22.0879 30.1783 22.2165C30.1921 22.3497 30.2196 22.4782 30.2472 22.6023ZM31.1113 21.8628C31.1159 21.693 31.1389 21.5275 31.2033 21.3853C31.2539 21.2704 31.3043 21.1785 31.3779 21.151C31.5939 21.2338 31.6307 21.6745 31.6353 21.8628C31.6398 21.9869 31.6628 22.1477 31.649 22.2992C31.6307 22.4599 31.5847 22.6161 31.5158 22.7171C31.4837 22.7722 31.4285 22.8044 31.3779 22.8182C31.2124 22.7722 31.1251 22.4416 31.1068 22.2992C31.0883 22.1477 31.1068 21.9869 31.1113 21.8628Z" fill="#6E58FF"/>
<path d="M33.2696 21.0545C33.3109 21.0591 33.3477 21.0868 33.3706 21.1189C33.3981 21.1647 33.3981 21.2198 33.3936 21.2751C33.3936 21.4358 33.3891 21.5966 33.3844 21.7573C33.3844 21.872 33.4166 21.9822 33.4166 22.0971C33.4166 22.2073 33.3891 22.3175 33.3891 22.4369C33.3891 22.5288 33.4257 22.6252 33.4212 22.7263C33.4166 22.8227 33.4166 22.9191 33.4257 23.0157C33.4257 23.158 33.4119 23.3049 33.4442 23.4474C33.4718 23.5851 33.5269 23.6725 33.6785 23.6815C33.7015 23.6815 33.7199 23.6815 33.7429 23.6815C33.7842 23.6815 33.8303 23.6815 33.8717 23.6815C33.9038 23.6862 33.9359 23.6862 33.9681 23.6862C34.0325 23.6862 34.0967 23.6815 34.1611 23.6815C34.2347 23.6815 34.3404 23.6494 34.4507 23.6449C34.4553 23.6449 34.4645 23.6449 34.469 23.6449C34.5748 23.6449 34.6805 23.6815 34.7449 23.6815C34.8045 23.6815 34.8644 23.677 34.9195 23.677C35.1034 23.677 35.1723 23.6081 35.1861 23.4336C35.1952 23.328 35.1769 23.2178 35.1723 23.1074C35.1676 23.0523 35.1814 22.988 35.1585 22.9284C35.1493 22.9054 35.1263 22.832 35.0987 22.8182C35.0896 22.8135 35.0804 22.8135 35.0666 22.8135C34.9195 22.8135 34.7724 22.8182 34.6254 22.8182C34.6208 22.8182 34.6161 22.8182 34.607 22.8182C34.5655 22.8182 34.5151 22.8227 34.4645 22.8227C34.2899 22.8227 34.2806 22.7446 34.2668 22.5931C34.2668 22.5012 34.2761 22.4141 34.2761 22.3267C34.2761 22.2073 34.2715 22.0926 34.2715 21.9731C34.2668 21.8583 34.2668 21.7388 34.2668 21.6241C34.2668 21.6103 34.2715 21.5966 34.2715 21.5828C34.2715 21.4541 34.2485 21.3255 34.2438 21.197C34.2438 21.0683 34.253 20.9398 34.253 20.8112C34.253 20.6825 34.2438 20.2738 34.0922 20.2233C34.0692 20.2188 34.0416 20.2188 34.0187 20.2188C33.9221 20.2188 33.8256 20.2278 33.7291 20.2278C33.7153 20.2278 33.697 20.2278 33.6832 20.2278C33.6602 20.2278 33.6326 20.2278 33.6096 20.2278C33.5086 20.2278 33.4074 20.2325 33.3064 20.2325C33.2786 20.2325 33.2511 20.2325 33.2282 20.2325C33.1731 20.2325 33.127 20.2416 33.0995 20.2969C33.0811 20.3289 33.0719 20.3748 33.0719 20.4161C33.0674 20.5218 33.0581 20.7055 33.0581 20.8112C33.0581 20.88 33.0764 20.9719 33.127 21.0178C33.1776 21.0591 33.2052 21.0453 33.2696 21.0545Z" fill="#6E58FF"/>
<path d="M35.7101 22.6023C35.7286 22.708 35.724 22.8182 35.7561 22.9146C35.8802 23.2774 35.9721 23.4519 36.3307 23.6264C36.4915 23.7091 36.6615 23.7138 36.8408 23.7138C37.2131 23.7138 37.4658 23.6357 37.6819 23.3187C37.8335 23.0983 37.9346 22.8733 37.9714 22.6069C37.9989 22.4782 38.0312 22.3497 38.045 22.2165C38.0541 22.0879 38.0495 21.9547 38.0403 21.8262C38.0357 21.6792 37.9483 21.1877 37.8979 21.0545C37.8152 20.7836 37.6313 20.4438 37.3647 20.3152C37.2269 20.2463 37.0661 20.2371 36.9052 20.2371C36.8316 20.2325 36.7534 20.2188 36.68 20.2188C36.5697 20.2188 36.4088 20.2601 36.3122 20.3059C36.1054 20.407 35.8434 20.8342 35.7699 21.05C35.7286 21.174 35.6872 21.3026 35.6642 21.4311C35.6412 21.5598 35.6504 21.693 35.6459 21.8262C35.6366 21.9547 35.6321 22.0879 35.6412 22.2165C35.6549 22.3497 35.6825 22.4782 35.7101 22.6023ZM36.5742 21.8628C36.5788 21.693 36.6018 21.5275 36.6662 21.3853C36.7168 21.2704 36.7672 21.1785 36.8408 21.151C37.0568 21.2338 37.0936 21.6745 37.0982 21.8628C37.1027 21.9869 37.1257 22.1477 37.1119 22.2992C37.0936 22.4599 37.0476 22.6161 36.9786 22.7171C36.9465 22.7722 36.8914 22.8044 36.8408 22.8182C36.6752 22.7722 36.588 22.4416 36.5697 22.2992C36.5512 22.1477 36.5697 21.9869 36.5742 21.8628Z" fill="#6E58FF"/>
<path d="M38.6204 22.5725C38.648 22.7929 38.7537 23.1281 38.8732 23.3072C39.0524 23.5645 39.2501 23.6517 39.5488 23.6885C39.65 23.7068 39.7418 23.7298 39.8429 23.7298C39.8522 23.7298 39.8613 23.7298 39.8705 23.7298C39.8705 23.8124 39.9026 23.863 39.9073 23.8998C39.9349 24.0375 39.9808 24.1109 40.1141 24.1201C40.2336 24.1201 40.5876 24.0743 40.638 23.9549C40.6518 23.9181 40.6518 23.8722 40.6518 23.8309C40.6472 23.7023 40.6197 23.5874 40.6197 23.4819C40.6197 23.3532 40.6242 23.2383 40.6242 23.1327C40.6197 23.0087 40.6427 22.894 40.6427 22.7836C40.6427 22.6735 40.6289 22.5633 40.6289 22.4346C40.6242 22.329 40.6242 22.2188 40.6242 22.0856C40.6242 21.9799 40.6104 21.8652 40.6104 21.7366C40.6104 21.6264 40.5691 21.5805 40.4588 21.5667C40.4175 21.562 40.3807 21.562 40.3393 21.562C40.2521 21.562 40.1601 21.5667 40.0727 21.5713C39.9717 21.5758 39.8705 21.5851 39.7695 21.5896C39.7097 21.5943 39.6086 21.5805 39.5718 21.6447C39.5533 21.6769 39.5488 21.7137 39.5443 21.7503C39.5395 21.8745 39.5443 21.9984 39.5443 22.1178C39.5443 22.1682 39.5395 22.2373 39.5764 22.2739C39.5856 22.2831 39.5947 22.2831 39.6086 22.2831C39.6407 22.2831 39.6775 22.2693 39.7051 22.2739C39.7465 22.2786 39.7923 22.2969 39.8292 22.3152C39.9211 22.3658 39.8981 22.5816 39.8981 22.6689C39.8981 22.7286 39.9073 22.8021 39.8843 22.8618C39.8843 22.8665 39.8798 22.8755 39.875 22.8802C39.8613 22.8848 39.8246 22.8893 39.8108 22.8893C39.7097 22.8893 39.6039 22.8527 39.5395 22.7791C39.4661 22.6965 39.3879 22.6046 39.3511 22.4944C39.3236 22.3842 39.3511 22.2601 39.342 22.1499C39.3328 22.026 39.3283 21.9111 39.3328 21.8101C39.3558 21.4564 39.4661 21.0247 39.8935 21.0247C39.967 21.0247 40.0452 21.043 40.1326 21.0753C40.1601 21.0845 40.183 21.0936 40.2015 21.0936C40.2704 21.0936 40.3852 20.9466 40.4037 20.887C40.4358 20.7353 40.4129 20.5793 40.399 20.4278C40.3944 20.391 40.4313 20.3267 40.4037 20.2991C40.3807 20.2808 40.3393 20.267 40.3117 20.2578C40.1326 20.2072 39.9211 20.1797 39.7327 20.1797C39.1398 20.1797 38.8685 20.5057 38.6894 21.0202C38.648 21.1441 38.6019 21.2681 38.5744 21.3968C38.5515 21.5253 38.5653 21.6584 38.5606 21.7916C38.5515 21.9203 38.5561 22.0535 38.5653 22.182C38.5791 22.3152 38.5882 22.4439 38.6204 22.5725Z" fill="#6E58FF"/>
<path d="M43.1065 21.1787C43.1663 21.05 43.2029 20.9123 43.2628 20.7883C43.3225 20.6597 43.4052 20.5449 43.465 20.4163C43.488 20.3657 43.5063 20.3016 43.465 20.2693C43.442 20.251 43.4006 20.2372 43.3593 20.2325C43.3134 20.228 43.2535 20.228 43.1892 20.228C42.8078 20.228 42.7204 20.2601 42.5229 20.6046C42.4492 20.7515 42.3941 20.8985 42.3252 21.0455C42.2563 20.8985 42.1919 20.7561 42.1183 20.6093C42.0678 20.5219 42.0356 20.4301 41.9759 20.3474C41.8932 20.2372 41.8013 20.2235 41.668 20.2188C41.6266 20.2188 41.5853 20.2188 41.5439 20.2188C41.5071 20.2188 41.4658 20.2188 41.4244 20.2188C41.3738 20.2188 41.2222 20.2187 41.1761 20.2463C41.1348 20.2648 41.1118 20.3061 41.098 20.3474C41.0797 20.4208 41.0842 20.4989 41.0842 20.577C41.0842 20.6597 41.0842 20.747 41.0797 20.8342C41.0797 20.903 41.0659 20.9904 41.121 21.0362C41.1578 21.0638 41.1946 21.0685 41.236 21.0685C41.2635 21.0685 41.2864 21.0685 41.314 21.0685C41.4152 21.0685 41.4658 21.119 41.5164 21.2017C41.5943 21.3164 41.6587 21.4405 41.7186 21.5645C41.7414 21.6241 41.7599 21.6839 41.7965 21.7345C41.8334 21.7896 41.8702 21.8447 41.8977 21.9043C41.9023 21.909 41.9115 21.9273 41.9161 21.9365C41.9253 21.9594 41.907 21.9869 41.907 22.0099C41.9023 22.0513 41.9115 22.0926 41.9115 22.1339C41.9161 22.2167 41.9208 22.2993 41.9208 22.382C41.9253 22.5565 41.9253 22.7265 41.9161 22.8963C41.9023 23.0983 41.8747 23.3004 41.907 23.4979C41.9346 23.6357 41.9942 23.7 42.1413 23.7C42.1736 23.7 42.2057 23.7 42.2332 23.6955C42.3573 23.6909 42.4768 23.6634 42.5963 23.6404C42.6008 23.6404 42.6056 23.6404 42.6101 23.6404C42.6239 23.6404 42.6469 23.6449 42.6652 23.6449C42.6745 23.6449 42.6837 23.6404 42.6928 23.6357C42.7985 23.5668 42.7341 23.328 42.7341 23.227C42.7296 23.0433 42.7757 22.8597 42.7757 22.6759C42.7757 22.5703 42.7572 22.4601 42.7572 22.3497C42.7572 22.2395 42.7479 22.1339 42.7479 22.0237C42.7479 21.9962 42.7434 21.9686 42.7434 21.9411C42.8078 21.8171 42.8674 21.6884 42.9318 21.5598C42.9917 21.4358 43.0468 21.3073 43.1065 21.1787Z" fill="#6E58FF"/>
<mask id="mask0_17512_87753" style="mask-type:luminance" maskUnits="userSpaceOnUse" x="2" y="0" width="21" height="20">
<path d="M2.66406 0.0078125H22.2864V19.4092H2.66406V0.0078125Z" fill="white"/>
</mask>
<g mask="url(#mask0_17512_87753)">
<path d="M9.32912 19.4074H2.66406L15.6306 0.015625H22.2956L9.32912 19.4074Z" fill="#6E58FF"/>
</g>
<mask id="mask1_17512_87753" style="mask-type:luminance" maskUnits="userSpaceOnUse" x="16" y="0" width="7" height="20">
<path d="M16.3727 0.00390625H22.1881V19.4234H16.3727V0.00390625Z" fill="white"/>
</mask>
<g mask="url(#mask1_17512_87753)">
<path d="M16.3727 0.00390625H22.1881V19.4234H16.3727V0.00390625Z" fill="#6E58FF"/>
</g>
<path d="M43.9846 12.4824C43.8697 10.9554 43.0997 9.74229 42.0625 8.68055C41.172 7.76909 40.2636 6.8742 39.3377 5.99866C38.8863 5.57152 38.4967 5.06419 37.9191 4.78175C37.898 4.77443 37.877 4.76693 37.8559 4.75892C37.8065 4.73852 37.757 4.71882 37.7076 4.69842C37.2376 4.53576 36.843 4.6428 36.4979 5.02531C36.1678 5.39108 36.1022 5.82065 36.3284 6.27551C36.6024 6.82608 37.0675 7.21103 37.5159 7.60975C38.5004 8.59094 39.501 9.55627 40.4646 10.5575C41.5505 11.6865 41.8239 13.0182 41.287 14.4908C40.8146 15.7862 39.8634 16.5383 38.5215 16.8132C38.4997 16.8176 38.4788 16.8225 38.4571 16.8268C38.3816 16.8319 38.3062 16.8368 38.2308 16.8416C38.1059 16.8399 37.9803 16.8355 37.8554 16.8368C36.7707 16.846 35.8541 16.4747 35.1305 15.6502C34.8975 15.3845 34.7089 15.0892 34.5096 14.7999C34.2685 14.4495 33.9771 14.1578 33.5214 14.1207C32.5821 14.0442 31.9357 14.9865 32.376 15.8763C33.1102 17.3596 34.2432 18.4472 35.8256 19.0096C36.6018 19.2852 37.4026 19.4181 38.227 19.2345C38.5116 19.2512 38.7843 19.1808 39.0589 19.1239C39.0866 19.1133 39.1138 19.1029 39.1417 19.0924C39.2431 19.0689 39.3445 19.0453 39.446 19.0213L39.4757 19.0305L39.4954 19.0064C39.6365 19.0312 39.7131 18.8921 39.83 18.8705C40.9438 18.6635 41.7794 17.9695 42.4936 17.1816C43.6884 15.8629 44.1176 14.2443 43.9846 12.4824Z" fill="#6E58FF"/>
<path d="M33.966 11.1677C34.8076 12.0247 35.6333 12.9004 36.5622 13.6674C36.7786 13.875 36.982 14.0987 37.2146 14.2866C37.7805 14.7445 38.6469 14.7556 39.0482 14.3267C39.4614 13.8855 39.3914 13.1266 38.838 12.5655C38.1694 11.8882 37.5275 11.1825 36.8033 10.562C36.3141 9.96018 35.6914 9.49103 35.1675 8.92198C34.8615 8.58881 34.5176 8.25948 34.3377 7.8646C33.6884 6.43761 33.8478 5.06886 34.8175 3.8204C34.974 3.61904 35.1225 3.4114 35.3432 3.25188C35.9401 2.81933 36.6079 2.6042 37.3234 2.49855C38.394 2.44607 39.3575 2.70009 40.1615 3.45219C40.5764 3.8408 40.8393 4.34517 41.2102 4.76847C41.5609 5.16893 42.0074 5.35495 42.4664 5.19491C42.9827 5.01499 43.2932 4.57809 43.2796 4.05646C43.2704 3.70743 43.1508 3.39152 42.9753 3.09933C42.6252 2.51772 42.1923 2.01597 41.6766 1.56059C40.721 0.715036 39.6295 0.237341 38.3728 0.104493C38.3216 0.0983909 38.2703 0.0921146 38.2195 0.0853153C37.9735 0.00511832 37.7217 0.0432991 37.4719 0.0507958C37.397 0.0471346 37.3222 0.0371971 37.2481 0.0415557C34.7074 0.174927 32.3884 2.06723 31.7748 4.52997C31.3166 6.3691 31.525 8.1031 32.6314 9.69256C33.0149 10.2438 33.5022 10.6949 33.966 11.1677Z" fill="#6E58FF"/>
<mask id="mask2_17512_87753" style="mask-type:luminance" maskUnits="userSpaceOnUse" x="19" y="5" width="14" height="15">
<path d="M19.2946 5.8125H32.2851V19.4111H19.2946V5.8125Z" fill="white"/>
</mask>
<g mask="url(#mask2_17512_87753)">
<mask id="mask3_17512_87753" style="mask-type:luminance" maskUnits="userSpaceOnUse" x="19" y="5" width="14" height="15">
<path d="M25.7867 5.80469C22.1994 5.80469 19.2914 8.84886 19.2914 12.604C19.2914 16.3591 22.1994 19.4033 25.7867 19.4033C29.3739 19.4033 32.282 16.3591 32.282 12.604C32.282 8.84886 29.3739 5.80469 25.7867 5.80469Z" fill="white"/>
</mask>
<g mask="url(#mask3_17512_87753)">
<path d="M19.2914 5.80469H32.282V19.4033H19.2914V5.80469Z" fill="#6E58FF"/>
</g>
</g>
<mask id="mask4_17512_87753" style="mask-type:luminance" maskUnits="userSpaceOnUse" x="23" y="9" width="6" height="7">
<path d="M23.1497 9.99609H28.4225V15.265H23.1497V9.99609Z" fill="white"/>
</mask>
<g mask="url(#mask4_17512_87753)">
<mask id="mask5_17512_87753" style="mask-type:luminance" maskUnits="userSpaceOnUse" x="23" y="9" width="6" height="7">
<path d="M25.7699 9.99609C24.314 9.99609 23.1335 11.1755 23.1335 12.6306C23.1335 14.0854 24.314 15.265 25.7699 15.265C27.2261 15.265 28.4063 14.0854 28.4063 12.6306C28.4063 11.1755 27.2261 9.99609 25.7699 9.99609Z" fill="white"/>
</mask>
<g mask="url(#mask5_17512_87753)">
<path d="M23.1335 9.99609H28.4063V15.265H23.1335V9.99609Z" fill="white"/>
</g>
</g>
<mask id="mask6_17512_87753" style="mask-type:luminance" maskUnits="userSpaceOnUse" x="0" y="19" width="39" height="5">
<path d="M0.00891113 19.2969H38.3671V23.3618H0.00891113V19.2969Z" fill="white"/>
</mask>
<g mask="url(#mask6_17512_87753)">
<path d="M6.69978 23.3786H0.00891113L31.6741 -23.9766H38.3637L6.69978 23.3786Z" fill="#6E58FF"/>
</g>
</svg>
